<svg xmlns="http://www.w3.org/2000/svg" viewBox="0 0 160 160"><defs><style>.cls-1{fill:#fcfff5;}.cls-2{fill:#f16e75;}</style></defs><title>DIT_Logo</title><g id="Layer_2" data-name="Layer 2"><g id="Layer_1-2" data-name="Layer 1"><circle class="cls-1" cx="80" cy="80" r="80"/><path class="cls-2" d="M35.91,80A44.09,44.09,0,1,0,80,35.91,44.14,44.14,0,0,0,35.91,80Zm30.2,33.87A36.78,36.78,0,0,1,55,106.75a.45.45,0,0,1-.14-.32V88.07a.43.43,0,0,1,.43-.43H65.78a.43.43,0,0,1,.43.44c-.35,8.11-.27,16.57.23,25.55A.25.25,0,0,1,66.11,113.87ZM89.84,115a.44.44,0,0,1-.32.39,36.64,36.64,0,0,1-18.94,0,.45.45,0,0,1-.32-.4,248.4,248.4,0,0,1-.09-31.08c.06-1,.13-2,.2-3a.44.44,0,0,1,.39-.39l18.41-2.15a.42.42,0,0,1,.48.4c.13,1.75.24,3.47.34,5.16A226.19,226.19,0,0,1,89.84,115Zm15.26-8.53a.43.43,0,0,1-.14.32,36.68,36.68,0,0,1-10.72,7,.38.38,0,0,1-.53-.38,225.44,225.44,0,0,0,.23-25.25.43.43,0,0,1,.43-.45h10.3a.43.43,0,0,1,.43.43Zm-10-59.15a1,1,0,0,1,1-.13,36.8,36.8,0,0,1,15.89,15.18,1,1,0,0,1-.07,1.05,11.71,11.71,0,1,1-16.87-16.1Zm-43.43,9.6a6,6,0,0,1,4.11-.27A22.31,22.31,0,0,1,59.28,58a25.06,25.06,0,0,0,4.28,1.61,19.64,19.64,0,0,0,4.74.49h.57a30.72,30.72,0,0,0,12.36-2.4.46.46,0,0,0,.22-.61l-1.22-2.56a.45.45,0,0,0-.59-.22,26.89,26.89,0,0,1-10.82,2A17.45,17.45,0,0,1,64.46,56a22.33,22.33,0,0,1-3.65-1.4A26.47,26.47,0,0,0,56.75,53a7.47,7.47,0,0,0-1.18-.24,36.55,36.55,0,0,1,35.36-7.7.55.55,0,0,1,.25.88,15.44,15.44,0,0,0,22.32,21.3.55.55,0,0,1,.89.21,36.52,36.52,0,0,1-5.06,34.42.27.27,0,0,1-.49-.16V84.18a.28.28,0,0,0-.27-.28H94a.26.26,0,0,1-.27-.25q-.23-3.72-.52-7.6l-.14-1.65a.26.26,0,0,0-.3-.24l-25.6,3a.26.26,0,0,0-.24.24l-.11,1.3c-.15,1.64-.27,3.29-.37,5a.27.27,0,0,1-.27.25H51.43a.28.28,0,0,0-.27.28v17.53a.27.27,0,0,1-.49.16,36.52,36.52,0,0,1-5.22-34,1.8,1.8,0,0,1,1-1.1,5.8,5.8,0,0,1,1.1-.32,13.38,13.38,0,0,1,6.58.93c.69.24,1.37.5,2,.76a34.91,34.91,0,0,0,5.47,1.73,19.56,19.56,0,0,0,4,.39c4.73,0,9.37-1.46,13.31-2.75A.45.45,0,0,0,79.3,67l-.89-2.7a.44.44,0,0,0-.56-.28C73,65.57,67.56,67.28,62.43,66.24a32,32,0,0,1-4.88-1.56c-.72-.28-1.43-.55-2.15-.8a18.74,18.74,0,0,0-6.92-1.24.41.41,0,0,1-.37-.61,36,36,0,0,1,3.43-5A.53.53,0,0,1,51.68,56.88Z"/><path class="cls-2" d="M116.32,113.62a.24.24,0,0,0-.31,0,49.2,49.2,0,0,1-71.5.54.36.36,0,0,0-.45,0l-2.55,1.7a.37.37,0,0,0-.06.56,53,53,0,0,0,77.61-.53.24.24,0,0,0,0-.36Z"/><path class="cls-2" d="M125.49,120l-2.69-1.87a.23.23,0,0,0-.31,0,57.07,57.07,0,0,1-84.6.44.36.36,0,0,0-.46-.06l-2.52,1.69a.35.35,0,0,0-.07.54,60.77,60.77,0,0,0,90.69-.41A.25.25,0,0,0,125.49,120Z"/><path class="cls-2" d="M41.91,109.85a.49.49,0,0,0-.06-.41l-3-5.13a7.53,7.53,0,0,0-3.66-3.4,5.33,5.33,0,0,0-4.6.51c-.64.35-1.07.59-1.29.73s-.67.41-1.31.82a5.44,5.44,0,0,0-2.12,2.37,5.61,5.61,0,0,0-.42,3,8.62,8.62,0,0,0,1.2,3.29l3,5a.54.54,0,0,0,.34.25.52.52,0,0,0,.42-.06l11.3-6.72A.54.54,0,0,0,41.91,109.85Zm-11.21.94-.63-1.05a1.81,1.81,0,0,1-.27-1.25,1.62,1.62,0,0,1,.79-1.07c.3-.21.72-.48,1.27-.81s1-.56,1.34-.74a1.71,1.71,0,0,1,1.3-.22,1.63,1.63,0,0,1,1,.78l.67,1.13Z"/><path class="cls-2" d="M34.73,97.08a.54.54,0,0,0,.07-.41l-.93-3.88a.5.5,0,0,0-.24-.34.52.52,0,0,0-.42-.07l-3.78.9-.19-.81,3.37-2.61a.87.87,0,0,0,.33-1l-1-4.06a.39.39,0,0,0-.2-.28.45.45,0,0,0-.34-.06.62.62,0,0,0-.2.12L27.3,88.12a4.88,4.88,0,0,0-2-1.18,4.43,4.43,0,0,0-2.4,0,4.4,4.4,0,0,0-3.16,2.44,7.24,7.24,0,0,0-.21,4.76l1.4,5.87a.51.51,0,0,0,.25.33.47.47,0,0,0,.41.07l12.79-3A.51.51,0,0,0,34.73,97.08Zm-11.16-2.4-.35-1.44a.8.8,0,0,1,.17-.77,1.34,1.34,0,0,1,.7-.41,1.19,1.19,0,0,1,.78.07.84.84,0,0,1,.45.6l.35,1.45Z"/><path class="cls-2" d="M32.06,82.93a.52.52,0,0,0,.15-.39l-.06-4.15A.58.58,0,0,0,32,78a.52.52,0,0,0-.39-.15l-13.15.21a.54.54,0,0,0-.39.17.52.52,0,0,0-.15.39L18,82.77a.58.58,0,0,0,.17.39.56.56,0,0,0,.39.15l13.15-.21A.54.54,0,0,0,32.06,82.93Z"/><path class="cls-2" d="M18.56,72.75,31.4,75.63a.55.55,0,0,0,.41-.08.5.5,0,0,0,.24-.34l.81-3.6a.51.51,0,0,0-.08-.41.5.5,0,0,0-.34-.24l-5-1.12,5.81-2.22a1.29,1.29,0,0,0,.39-.23.84.84,0,0,0,.25-.48l.71-3.14a.52.52,0,0,0-.08-.42.5.5,0,0,0-.34-.24L21.37,60.23a.5.5,0,0,0-.41.08.54.54,0,0,0-.25.34l-.8,3.59a.55.55,0,0,0,.41.66l5.43,1.22-6.26,2.12a.88.88,0,0,0-.64.71l-.7,3.14a.5.5,0,0,0,.07.41A.53.53,0,0,0,18.56,72.75Z"/><path class="cls-2" d="M23.55,54.75,35,61.3a.56.56,0,0,0,.42.05.51.51,0,0,0,.33-.26l1.94-3.37a.56.56,0,0,0,0-.42.5.5,0,0,0-.25-.33L33.66,54.8l5.08.06a1.22,1.22,0,0,0,.42-.09.9.9,0,0,0,.4-.4l2.32-4a.45.45,0,0,0,0-.34.41.41,0,0,0-.21-.27.34.34,0,0,0-.22-.06l-7.86.11-3.51-6.24a.45.45,0,0,0-.5-.2.42.42,0,0,0-.28.2L27.1,47.45a.85.85,0,0,0,0,.93l2.44,4-3.5-2a.56.56,0,0,0-.42-.05.51.51,0,0,0-.33.26L23.34,54a.54.54,0,0,0-.05.41A.56.56,0,0,0,23.55,54.75Z"/><path class="cls-2" d="M35.34,43.08q2.63,2.72,6.89-.44A12,12,0,0,1,44,41.48c.36-.16.62-.16.79,0s.12.32,0,.59a3.28,3.28,0,0,1-.69.88,2.33,2.33,0,0,1-1.41.71,1.67,1.67,0,0,0-.49.1,1.12,1.12,0,0,0-.38.26L39,46.74a.4.4,0,0,0-.13.31.45.45,0,0,0,.12.32,3.67,3.67,0,0,0,2.08,1,5.06,5.06,0,0,0,2.72-.43,9.93,9.93,0,0,0,3-2.12A9.37,9.37,0,0,0,48.92,43a5.63,5.63,0,0,0,.57-2.88,4,4,0,0,0-1.14-2.43,4.06,4.06,0,0,0-2-1.21,3.75,3.75,0,0,0-2.27.23,12.28,12.28,0,0,0-2.9,1.7,7.65,7.65,0,0,1-1.54,1c-.32.12-.55.11-.7,0s-.16-.64.31-1.09a1.54,1.54,0,0,1,1-.49,1.62,1.62,0,0,0,.44-.07,1.2,1.2,0,0,0,.37-.26l2.93-2.84a.41.41,0,0,0,.11-.3.39.39,0,0,0-.12-.32,3.36,3.36,0,0,0-1.92-.81,5.69,5.69,0,0,0-2.74.37,7.92,7.92,0,0,0-2.86,1.87,8.32,8.32,0,0,0-1.92,2.67,5.08,5.08,0,0,0-.41,2.72A4,4,0,0,0,35.34,43.08Z"/><path class="cls-2" d="M56,37.92a.55.55,0,0,0,.32.28.51.51,0,0,0,.42,0l3.71-1.86a.5.5,0,0,0,.27-.32.55.55,0,0,0,0-.42L54.76,23.81a.52.52,0,0,0-.31-.27.51.51,0,0,0-.42,0l-3.71,1.86a.55.55,0,0,0-.28.32.51.51,0,0,0,0,.42Z"/><path class="cls-2" d="M62.51,34.43a.51.51,0,0,0,.25.34.54.54,0,0,0,.41.07L66.76,34a.5.5,0,0,0,.33-.24.53.53,0,0,0,.07-.42l-1.18-5,4.55,4.25a1.34,1.34,0,0,0,.37.25.9.9,0,0,0,.55,0l3.13-.75a.53.53,0,0,0,.34-.25.54.54,0,0,0,.07-.41l-3-12.8a.55.55,0,0,0-.25-.33.47.47,0,0,0-.41-.07l-3.59.85a.57.57,0,0,0-.34.25.54.54,0,0,0-.07.41l1.29,5.41-4.65-4.69a.89.89,0,0,0-.92-.26L59.87,21a.54.54,0,0,0-.34.25.56.56,0,0,0-.07.42Z"/><path class="cls-2" d="M81.65,22l3.35.44L83.79,31.7a.51.51,0,0,0,.11.41.52.52,0,0,0,.36.21l4,.53a.55.55,0,0,0,.61-.47l1.21-9.25,3.36.44a.55.55,0,0,0,.61-.47l.43-3.25a.55.55,0,0,0-.11-.41.56.56,0,0,0-.37-.21L82.22,17.68a.55.55,0,0,0-.41.11.52.52,0,0,0-.21.36l-.43,3.25a.55.55,0,0,0,.11.41A.56.56,0,0,0,81.65,22Z"/><path class="cls-2" d="M91.6,32.5a.43.43,0,0,0,0,.35.47.47,0,0,0,.24.24l3.47,1.46a.76.76,0,0,0,.93-.16l1-1,4,1.69-.07,1.43a.76.76,0,0,0,.53.78l3.48,1.46a.44.44,0,0,0,.34,0,.47.47,0,0,0,.24-.24,1,1,0,0,0,0-.14l.85-13.73a1.17,1.17,0,0,0-.1-.55.88.88,0,0,0-.49-.43L102,21.9a.86.86,0,0,0-.64,0,1.11,1.11,0,0,0-.47.31L91.68,32.38A.36.36,0,0,0,91.6,32.5ZM102.23,27l-.4,3.94-2.12-.89Z"/><path class="cls-2" d="M106.3,39.78a.53.53,0,0,0,.22.36l3.35,2.45a.54.54,0,0,0,.41.1.52.52,0,0,0,.36-.21l7.76-10.62a.54.54,0,0,0,.1-.41.57.57,0,0,0-.22-.36l-3.35-2.45a.54.54,0,0,0-.41-.1.57.57,0,0,0-.36.22L106.4,39.37A.55.55,0,0,0,106.3,39.78Z"/><path class="cls-2" d="M115.85,40.21A5.12,5.12,0,0,0,114,44.39,7.94,7.94,0,0,0,116.13,49a10.09,10.09,0,0,0,2.62,2.19,5.67,5.67,0,0,0,2.93.77,4.57,4.57,0,0,0,2.88-1.18.44.44,0,0,0,.15-.3.43.43,0,0,0-.11-.33L121.89,47a.75.75,0,0,0-.42-.3,1,1,0,0,0-.52.11,1.66,1.66,0,0,1-2.26-1.51,1.78,1.78,0,0,1,.69-1.14c.29-.27.72-.65,1.3-1.15s1-.86,1.29-1.09a1.79,1.79,0,0,1,1.23-.52,1.48,1.48,0,0,1,1,.58,1.69,1.69,0,0,1,.43.87,1.67,1.67,0,0,1-.26,1,1.11,1.11,0,0,0-.18.51.85.85,0,0,0,.22.45L127.13,48a.44.44,0,0,0,.31.15.42.42,0,0,0,.32-.11,4.51,4.51,0,0,0,1.58-2.67,5.66,5.66,0,0,0-.33-3,10,10,0,0,0-1.79-2.91A7.89,7.89,0,0,0,123,36.64a5.13,5.13,0,0,0-4.41,1.2c-.3.24-.77.63-1.4,1.18S116.11,40,115.85,40.21Z"/><path class="cls-2" d="M121.57,55.14a.56.56,0,0,0,0,.42l1.56,3.67a.52.52,0,0,0,.31.29.51.51,0,0,0,.42,0l4-1.73,1.29,3-4,1.72a.5.5,0,0,0-.29.3.51.51,0,0,0,0,.42l1.57,3.67a.5.5,0,0,0,.3.3.56.56,0,0,0,.42,0l12.09-5.16a.54.54,0,0,0,.29-.72L138,57.68a.53.53,0,0,0-.3-.29.51.51,0,0,0-.42,0l-3.94,1.68L132,56,136,54.36a.5.5,0,0,0,.29-.3.51.51,0,0,0,0-.42L134.69,50a.54.54,0,0,0-.72-.29l-12.1,5.16A.5.5,0,0,0,121.57,55.14Z"/><path class="cls-2" d="M142.36,80.35l-.36-4a.54.54,0,0,0-.19-.37.55.55,0,0,0-.4-.13l-8.22.75a1.71,1.71,0,0,1-1.2-.27,1.49,1.49,0,0,1-.49-1.09,1.46,1.46,0,0,1,.29-1.16,1.59,1.59,0,0,1,1.13-.48l8.21-.75a.49.49,0,0,0,.37-.2.54.54,0,0,0,.13-.4l-.36-4a.51.51,0,0,0-.2-.37.53.53,0,0,0-.4-.13l-8.29.75a5,5,0,0,0-4,2.16,7.64,7.64,0,0,0-1,4.94,7.57,7.57,0,0,0,1.83,4.66,5,5,0,0,0,4.32,1.38l8.3-.75a.53.53,0,0,0,.37-.2A.49.49,0,0,0,142.36,80.35Z"/><path class="cls-2" d="M141.49,86.75,128.64,84a.56.56,0,0,0-.42.07.62.62,0,0,0-.24.35l-.77,3.6a.54.54,0,0,0,.42.65l5,1.08L126.82,92a1.38,1.38,0,0,0-.38.23.84.84,0,0,0-.25.49l-.68,3.14a.54.54,0,0,0,.08.41.52.52,0,0,0,.34.24l12.86,2.78a.54.54,0,0,0,.41-.08.52.52,0,0,0,.24-.34l.78-3.61a.55.55,0,0,0-.08-.41.52.52,0,0,0-.34-.24l-5.44-1.17,6.24-2.18a.87.87,0,0,0,.64-.71l.67-3.15a.5.5,0,0,0-.07-.41A.54.54,0,0,0,141.49,86.75Z"/><path class="cls-2" d="M132.82,102.25c-.32-.2-.86-.51-1.6-.94s-1.25-.71-1.58-.88a5.3,5.3,0,0,0-4.59-.43,7.82,7.82,0,0,0-3.68,3.6,9.55,9.55,0,0,0-1.26,3.49,5.39,5.39,0,0,0,.43,3.08,5.17,5.17,0,0,0,2.21,2.29l2.29,1.31a.51.51,0,0,0,.42,0,.5.5,0,0,0,.33-.25l2.79-4.86a.56.56,0,0,0,0-.42.54.54,0,0,0-.26-.33l-2-1.12a.5.5,0,0,0-.41,0,.54.54,0,0,0-.34.25l-.47.83h0a1.28,1.28,0,0,1-.73-.94,2.08,2.08,0,0,1,.34-1.28,1.52,1.52,0,0,1,2.32-.57c.35.18.85.47,1.53.85l1.47.87a1.41,1.41,0,0,1,.55,2.12,1.76,1.76,0,0,1-.54.6,1.4,1.4,0,0,1-.57.25l-.31,0a.7.7,0,0,0-.49.4l-2.24,3.9a.45.45,0,0,0,0,.34.41.41,0,0,0,.21.27,3.69,3.69,0,0,0,2.42.36,5.7,5.7,0,0,0,2.65-1.3,10.14,10.14,0,0,0,2.35-2.88,8,8,0,0,0,1.26-4.95A5,5,0,0,0,132.82,102.25Z"/><path class="cls-2" d="M80,6.64A73.36,73.36,0,1,0,153.36,80,73.44,73.44,0,0,0,80,6.64Zm0,139.25A65.89,65.89,0,1,1,145.89,80,66,66,0,0,1,80,145.89Z"/></g></g></svg>