<svg xmlns="http://www.w3.org/2000/svg" viewBox="0 0 42.57 62.14" height="30px">
    <path fill="#f05153"
          d="M40.07,0H2.5A2.5,2.5,0,0,0,0,2.78L6.47,59.92A2.5,2.5,0,0,0,9,62.14H33.61a2.5,2.5,0,0,0,2.48-2.22L42.55,2.78A2.5,2.5,0,0,0,40.07,0Zm-2.8,5-.65,5.75a7.82,7.82,0,0,0-2.15,1.12,2.31,2.31,0,0,1-3,0,7.26,7.26,0,0,0-8.67,0,2.3,2.3,0,0,1-3,0,7,7,0,0,0-4.33-1.44,7,7,0,0,0-4.33,1.44,2.14,2.14,0,0,1-1.51.56,2.14,2.14,0,0,1-1.51-.56,7.86,7.86,0,0,0-2.12-1.11L5.3,5ZM31.38,57.14H11.19L6.63,16.8a6.82,6.82,0,0,0,2.95.62A7,7,0,0,0,13.91,16a2.3,2.3,0,0,1,3,0,7.25,7.25,0,0,0,8.67,0,2.31,2.31,0,0,1,3,0A7,7,0,0,0,33,17.43a6.82,6.82,0,0,0,3-.64Z"/>
</svg>