<svg xmlns="http://www.w3.org/2000/svg" viewBox="0 0 33.96 62.14" height="30px">
            <path fill="#f05153"
                  d="M30.13,19.06c0-6.92,3.6-15.5,3.64-15.58A2.5,2.5,0,0,0,31.46,0H2.5A2.5,2.5,0,0,0,.2,3.48c0,.09,3.64,8.67,3.64,15.58a12.55,12.55,0,0,1-1.51,6.23A21.65,21.65,0,0,0,0,35.89c0,.44,0,.86,0,1.22.4,7.69,5.86,12.7,14.43,13.51v6.52H8.18a2.5,2.5,0,1,0,0,5h17.6a2.5,2.5,0,0,0,0-5h-6.3V50.63c8.57-.81,14-5.82,14.43-13.46,0-.41,0-.83,0-1.27a21.65,21.65,0,0,0-2.32-10.6A12.55,12.55,0,0,1,30.13,19.06ZM27.86,5c-.38,1.13-.81,2.5-1.2,4H7.3c-.4-1.48-.82-2.85-1.2-4Zm1.06,31.86c-.42,8-8.49,8.9-11.94,8.9S5.46,44.89,5,36.81c0-.3,0-.6,0-.92A16.94,16.94,0,0,1,6.85,27.4a17.48,17.48,0,0,0,2-8.34A32.29,32.29,0,0,0,8.38,14h17.2a32.29,32.29,0,0,0-.45,5.08,17.48,17.48,0,0,0,2,8.34A16.94,16.94,0,0,1,29,35.89C29,36.21,28.95,36.51,28.92,36.86Z"/>
</svg>