<svg xmlns="http://www.w3.org/2000/svg" viewBox="0 0 31.65 87.25" height="30px">
    <path fill="#f05135"
          d="M31.65,42.49a2.49,2.49,0,0,0-.07-.57V41.6A13.47,13.47,0,0,0,26.4,30.7a6.78,6.78,0,0,1-2.63-5.46V13.81a2.46,2.46,0,0,0-.67-1.69.71.71,0,0,1,0-1,2.46,2.46,0,0,0,.67-1.69V2.5A2.5,2.5,0,0,0,21.27,0h-11a2.5,2.5,0,0,0-2.5,2.5V9.45a2.46,2.46,0,0,0,.67,1.69.71.71,0,0,1,0,1,2.46,2.46,0,0,0-.67,1.69V25.24A6.78,6.78,0,0,1,5.18,30.7,13.46,13.46,0,0,0,0,41.6V77.9a9.34,9.34,0,0,0,9.34,9.34H22.23a9.34,9.34,0,0,0,9.34-9.34V75.27a2.49,2.49,0,0,0,.07-.57ZM5.77,45H25.88a.7.7,0,0,1,.7.7V71.51a.7.7,0,0,1-.7.7H5.77a.7.7,0,0,1-.7-.7V45.68A.7.7,0,0,1,5.77,45ZM13.18,5h5.21a.37.37,0,0,1,.37.37v1.2a.37.37,0,0,1-.37.37H13.18a.37.37,0,0,1-.37-.37V5.37A.37.37,0,0,1,13.18,5ZM8.33,34.59a11.83,11.83,0,0,0,4.48-9.35V16.83a.52.52,0,0,1,.52-.52h4.91a.52.52,0,0,1,.52.52v8.41a11.83,11.83,0,0,0,4.48,9.35,8.45,8.45,0,0,1,3.1,4.85.46.46,0,0,1-.46.55H5.68a.46.46,0,0,1-.46-.55A8.44,8.44,0,0,1,8.33,34.59ZM22.23,82.25H9.34A4.34,4.34,0,0,1,5,77.9H5a.7.7,0,0,1,.7-.7H25.88a.7.7,0,0,1,.7.7h0A4.34,4.34,0,0,1,22.23,82.25Z"/>
    <path fill="#f05135"
          d="M9.09,60.52a2.49,2.49,0,0,0,1-.22l13.39-6a2.5,2.5,0,0,0-2-4.57l-13.39,6a2.5,2.5,0,0,0,1,4.78Z"/>
    <path fill="#f05135" d="M21.46,57.87l-13.39,6a2.5,2.5,0,1,0,2,4.57l13.39-6a2.5,2.5,0,0,0-2-4.57Z"/>
</svg>