<svg xmlns="http://www.w3.org/2000/svg" viewBox="0 0 80.65 78.39" height="30px">
    <path fill="#f05135"
          d="M18.78,45a12.09,12.09,0,1,0-4,0A16.8,16.8,0,0,0,0,61.61V75.89a2.5,2.5,0,0,0,5,0V61.61a11.79,11.79,0,1,1,23.57,0V75.89a2.5,2.5,0,1,0,5,0V61.61A16.8,16.8,0,0,0,18.78,45ZM9.69,33a7.09,7.09,0,1,1,7.09,7.09A7.1,7.1,0,0,1,9.69,33Z"/>
    <path fill="#f05135"
          d="M77.63,3.24a3.18,3.18,0,0,0-3.35,2.18c-.41,1.25-1.69,2-3.79,2.32A12.62,12.62,0,0,0,61,14.16,15.9,15.9,0,0,0,59.15,21a12.08,12.08,0,0,0-1.5,24A16.8,16.8,0,0,0,42.86,61.61V75.89a2.5,2.5,0,0,0,5,0V61.61a11.79,11.79,0,1,1,23.57,0V75.89a2.5,2.5,0,0,0,5,0V61.61A16.8,16.8,0,0,0,61.64,45,12.07,12.07,0,0,0,67,23.46a24.21,24.21,0,0,1,6.08-2.3c3.32-.85,8.7-3.94,7.37-15.15A3.14,3.14,0,0,0,77.63,3.24Zm-18,36.89A7.09,7.09,0,1,1,66.74,33,7.1,7.1,0,0,1,59.64,40.13ZM71.85,16.31a29,29,0,0,0-7.41,2.86,11.37,11.37,0,0,1,1-2.66,7.61,7.61,0,0,1,5.72-3.82,11.7,11.7,0,0,0,4.37-1.45C75.2,14.07,74,15.78,71.85,16.31Z"/>
    <path fill="#f05135"
          d="M48.17,6.4A6.4,6.4,0,0,0,41.78,0a6.16,6.16,0,0,0-3.56,1.41A6.16,6.16,0,0,0,34.65,0a6.4,6.4,0,0,0-6.39,6.4c0,4.71,6.44,10.12,8.41,11.66a2.5,2.5,0,0,0,3.08,0C41.73,16.51,48.17,11.11,48.17,6.4Zm-10,6.43c-2.57-2.3-5-5.13-5-6.43A1.4,1.4,0,0,1,34.57,5a6.28,6.28,0,0,1,1.75,1.45,2.58,2.58,0,0,0,3.81,0A6.25,6.25,0,0,1,41.86,5a1.4,1.4,0,0,1,1.3,1.4C43.17,7.69,40.79,10.52,38.21,12.83Z"/>
</svg>