<svg xmlns="http://www.w3.org/2000/svg" viewBox="0 0 29.65 19.56"><defs><style>.cls-1{fill:#2e2e34;}</style></defs><title>email</title><g id="Layer_2" data-name="Layer 2"><g id="Layer_1-2" data-name="Layer 1"><path class="cls-1" d="M26.56,0H3.08A3.09,3.09,0,0,0,0,3.08V16.47a3.09,3.09,0,0,0,3.08,3.08H26.56a3.09,3.09,0,0,0,3.08-3.08V3.08A3.09,3.09,0,0,0,26.56,0ZM23.64,3l-9,7.54L5.69,3Zm2.92,13.56H3.08A.09.09,0,0,1,3,16.47V4.65l10.7,9a1.5,1.5,0,0,0,1.93,0l11-9.26V16.47A.08.08,0,0,1,26.56,16.56Z"/></g></g></svg>