<svg xmlns="http://www.w3.org/2000/svg" viewBox="0 0 82.19 47.98" height="30px">
    <path fill="#f05135"
          d="M43.68,7.39A16.66,16.66,0,1,0,60.34,24,16.68,16.68,0,0,0,43.68,7.39Zm0,28.33A11.66,11.66,0,1,1,55.34,24,11.68,11.68,0,0,1,43.68,35.71Z"/>
    <path fill="#f05135"
          d="M43.68.12A23.93,23.93,0,1,0,67.61,24,24,24,0,0,0,43.68.12Zm0,42.86A18.93,18.93,0,1,1,62.61,24,18.95,18.95,0,0,1,43.68,43Z"/>
    <path fill="#f05135"
          d="M72.6.15a2.5,2.5,0,0,0-2.14,2.47v42a2.5,2.5,0,0,0,5,0V29.17l4.29-.11a2.5,2.5,0,0,0,2.43-2.5V5.41a4.79,4.79,0,0,0-1.68-3.73C78-.51,73.48,0,72.6.15Zm4.59,24-1.73,0V5a4.08,4.08,0,0,1,1.73.39Z"/>
    <path fill="#f05135"
          d="M15.57.12a2.5,2.5,0,0,0-2.5,2.5V14.41H11.41V2.62a2.5,2.5,0,0,0-5,0V14.41H5V2.62a2.5,2.5,0,0,0-5,0V16.91a2.5,2.5,0,0,0,2.5,2.5H6.41V44.66a2.5,2.5,0,0,0,5,0V19.41h4.16a2.5,2.5,0,0,0,2.5-2.5V2.62A2.5,2.5,0,0,0,15.57.12Z"/>
</svg>