<svg xmlns="http://www.w3.org/2000/svg" viewBox="0 0 76.43 75.02" height="30px">
    <path fill="#f05135"
          d="M40.72,32.33V2.5A2.5,2.5,0,0,0,38.22,0H11.43a2.5,2.5,0,0,0-2.5,2.5V25.66a7,7,0,1,0,5,6.68V13.93H35.72V25.66a7,7,0,1,0,5,6.68ZM7,30.37a2,2,0,1,1-2,2A2,2,0,0,1,7,30.37ZM35.72,5V8.93H13.93V5Zm-2,25.37a2,2,0,1,1-2,2A2,2,0,0,1,33.75,30.37Z"/>
    <path fill="#f05135"
          d="M73.93,35.72H47.15a2.5,2.5,0,0,0-2.5,2.5V61.37a7,7,0,1,0,5,6.68V49.65H71.43V61.37a7,7,0,1,0,5,6.68V38.22A2.5,2.5,0,0,0,73.93,35.72ZM69.47,66.09a2,2,0,1,1-2,2A2,2,0,0,1,69.47,66.09Zm-26.79,0a2,2,0,1,1-2,2A2,2,0,0,1,42.68,66.09ZM71.43,40.72v3.93H49.65V40.72Z"/>
</svg>