<svg xmlns="http://www.w3.org/2000/svg" viewBox="0 0 76.57 76.57" height="20px">
    <path fill="#f05135"
          d="M38.29,0A38.29,38.29,0,1,0,76.57,38.29,38.33,38.33,0,0,0,38.29,0Zm0,71.57A33.29,33.29,0,1,1,71.57,38.29,33.32,33.32,0,0,1,38.29,71.57Z"/>
    <path fill="#f05135"
          d="M48.17,24.15,34.09,33.59a2.49,2.49,0,0,0-.77.83L24.85,49.1a2.5,2.5,0,0,0,3.56,3.33L42.48,43a2.49,2.49,0,0,0,.77-.83l8.47-14.68a2.5,2.5,0,0,0-3.56-3.33Zm-9,15-4.65,3.12,2.8-4.85L42,34.3Z"/>
    <path fill="#f05135"
          d="M68.33,38.24a29.94,29.94,0,0,0-8.72-21.09L59.5,17l-.15-.12A29.94,29.94,0,0,0,38.29,8.24h0A30,30,0,0,0,17.15,17l-.13.11s-.08.1-.12.15A29.94,29.94,0,0,0,8.24,38.29v0h0A30,30,0,0,0,17,59.43l.1.13.15.12a29.94,29.94,0,0,0,21.07,8.65h0a30,30,0,0,0,21.09-8.72l.13-.11s.08-.1.12-.15a29.94,29.94,0,0,0,8.65-21.07v0h0Zm-7.28,2.51h2.16A24.92,24.92,0,0,1,57.69,54.1l-1.51-1.51a2.5,2.5,0,0,0-3.54,3.54l1.52,1.52A24.93,24.93,0,0,1,40.82,63.2V61.05a2.5,2.5,0,0,0-5,0v2.16a24.92,24.92,0,0,1-13.35-5.52L24,56.18a2.5,2.5,0,0,0-3.54-3.54l-1.52,1.52a24.93,24.93,0,0,1-5.56-13.34h2.15a2.5,2.5,0,0,0,0-5H13.37a24.93,24.93,0,0,1,5.52-13.35L20.4,24a2.5,2.5,0,0,0,3.54-3.54l-1.52-1.52a24.93,24.93,0,0,1,13.33-5.56v2.15a2.5,2.5,0,0,0,5,0V13.37A24.93,24.93,0,0,1,54.1,18.89L52.59,20.4a2.5,2.5,0,1,0,3.54,3.54l1.52-1.52A24.93,24.93,0,0,1,63.2,35.75H61.05a2.5,2.5,0,0,0,0,5Z"/>
</svg>