<svg xmlns="http://www.w3.org/2000/svg" viewBox="0 0 76.43 81.51"  height="30px">
            <path fill="#f05135"
                  d="M44.94,17.37A2.5,2.5,0,0,0,46.07,20a10.53,10.53,0,0,1-4,19.36,2.5,2.5,0,0,0-.94,4.6,15.64,15.64,0,0,0,8.2,2.33A15.53,15.53,0,1,0,47,15.4,2.5,2.5,0,0,0,44.94,17.37Zm9.13,4A10.53,10.53,0,0,1,50,41.26a15.49,15.49,0,0,0,4.11-19.89Z"/>
            <path fill="#f05135"
                  d="M32.26,14.56a2.49,2.49,0,0,0,0,2.41,2.48,2.48,0,0,0,2.11,3.65,2.49,2.49,0,0,0,4.23,0A2.48,2.48,0,0,0,40.67,17a2.49,2.49,0,0,0-2.11-3.66,2.49,2.49,0,0,0-4.22,0A2.49,2.49,0,0,0,32.26,14.56Z"/>
            <path fill="#f05135"
                  d="M24.8,9.57a2.49,2.49,0,0,0,2.07,1.24,2.49,2.49,0,0,0,4.23,0A2.48,2.48,0,0,0,33.2,7.16,2.49,2.49,0,0,0,31.09,3.5a2.49,2.49,0,0,0-4.22,0,2.49,2.49,0,0,0-2.11,3.66A2.49,2.49,0,0,0,24.8,9.57Z"/>
            <path fill="#f05135"
                  d="M35.18,25.83a2.49,2.49,0,0,0-2.07-1.24,2.49,2.49,0,0,0-4.22,0,2.49,2.49,0,0,0-2.11,3.66,2.48,2.48,0,0,0,2.11,3.65,2.49,2.49,0,0,0,4.23,0,2.48,2.48,0,0,0,2.11-3.65A2.49,2.49,0,0,0,35.18,25.83Z"/>
            <path fill="#f05135"
                  d="M38.53,32a2.49,2.49,0,0,0,2.07,1.24,2.49,2.49,0,0,0,4.23,0,2.48,2.48,0,0,0,2.11-3.65,2.49,2.49,0,0,0-2.11-3.66,2.49,2.49,0,0,0-4.22,0,2.49,2.49,0,0,0-2.11,3.66A2.49,2.49,0,0,0,38.53,32Z"/>
            <path fill="#f05135"
                  d="M51.5,10.88a2.49,2.49,0,0,0,2.07,1.24,2.49,2.49,0,0,0,4.23,0,2.48,2.48,0,0,0,2.11-3.65A2.49,2.49,0,0,0,57.8,4.81a2.49,2.49,0,0,0-4.22,0,2.49,2.49,0,0,0-2.11,3.66A2.49,2.49,0,0,0,51.5,10.88Z"/>
            <path fill="#f05135"
                  d="M39.95,7.24A2.49,2.49,0,0,0,42,8.48a2.49,2.49,0,0,0,4.23,0,2.48,2.48,0,0,0,2.11-3.65,2.49,2.49,0,0,0-2.11-3.66,2.49,2.49,0,0,0-4.22,0,2.49,2.49,0,0,0-2.11,3.66A2.49,2.49,0,0,0,39.95,7.24Z"/>
            <path fill="#f05135"
                  d="M73.93,47.53H59.64a2.5,2.5,0,0,0-2.5,2.5v5H47.86V50.69a2.5,2.5,0,0,0-2.5-2.5H33.57V40.84a2.5,2.5,0,0,0-2.5-2.5H19.32V31.89a2.5,2.5,0,0,0-2.5-2.5H2.5A2.5,2.5,0,0,0,0,31.89V79a2.5,2.5,0,0,0,2.5,2.5H73.93a2.5,2.5,0,0,0,2.5-2.5V50A2.5,2.5,0,0,0,73.93,47.53ZM5,34.39h9.32V76.51H5Zm14.32,9h9.25V76.51H19.32Zm14.25,9.86h9.29V76.51H33.57Zm14.29,6.89h9.29V76.51H47.86ZM71.43,76.51H62.14v-24h9.29Z"/>
            <rect fill="#f05135" x="39.08" y="66.35" width="2.68" height="2.68" rx="0.33" ry="0.33"/>
            <rect fill="#f05135" x="53.3" y="66.35" width="2.68" height="2.68" rx="0.33" ry="0.33"/>
            <rect fill="#f05135" x="20.36" y="61.21" width="2.68" height="2.68" rx="0.33" ry="0.33"/>
            <rect fill="#f05135" x="48.8" y="61.21" width="2.68" height="2.68" rx="0.33" ry="0.33"/>
            <rect fill="#f05135" x="63.2" y="61.21" width="2.68" height="2.68" rx="0.33" ry="0.33"/>
            <rect fill="#f05135" x="20.36" y="45.82" width="2.68" height="2.68" rx="0.33" ry="0.33"/>
            <rect fill="#f05135" x="24.85" y="45.82" width="2.68" height="2.68" rx="0.33" ry="0.33"/>
            <rect fill="#f05135" x="6.07" y="61.21" width="2.68" height="2.68" rx="0.33" ry="0.33"/>
            <rect fill="#f05135" x="10.57" y="45.82" width="2.68" height="2.68" rx="0.33" ry="0.33"/>
            <rect fill="#f05135" x="6.07" y="40.68" width="2.68" height="2.68" rx="0.33" ry="0.33"/>
            <rect fill="#f05135" x="10.57" y="35.55" width="2.68" height="2.68" rx="0.33" ry="0.33"/>
            <rect fill="#f05135" x="24.85" y="56.08" width="2.68" height="2.68" rx="0.33" ry="0.33"/>
            <rect fill="#f05135" x="34.59" y="56.08" width="2.68" height="2.68" rx="0.33" ry="0.33"/>
            <rect fill="#f05135" x="39.08" y="56.08" width="2.68" height="2.68" rx="0.33" ry="0.33"/>
            <rect fill="#f05135" x="67.69" y="56.08" width="2.68" height="2.68" rx="0.33" ry="0.33"/>
</svg>