<svg xmlns="http://www.w3.org/2000/svg" viewBox="0 0 62.14 62.14" height="30px">
    <path fill="#f05135"
          d="M31.07,0A31.07,31.07,0,1,0,62.14,31.07,31.11,31.11,0,0,0,31.07,0ZM51,47.87a2.47,2.47,0,0,0-.61-1l-2.33-2.33a2.5,2.5,0,1,0-3.54,3.54l2.33,2.33a2.47,2.47,0,0,0,1,.61A26,26,0,0,1,33.27,57a2.47,2.47,0,0,0,.3-1.16V52.59a2.5,2.5,0,1,0-5,0v3.29a2.47,2.47,0,0,0,.3,1.16A26,26,0,0,1,14.27,51a2.47,2.47,0,0,0,1-.61l2.33-2.33a2.5,2.5,0,0,0-3.54-3.54l-2.33,2.33a2.47,2.47,0,0,0-.61,1A26,26,0,0,1,5.1,33.27a2.47,2.47,0,0,0,1.16.3H9.55a2.5,2.5,0,1,0,0-5H6.26a2.47,2.47,0,0,0-1.16.3,26,26,0,0,1,6.05-14.59,2.47,2.47,0,0,0,.61,1l2.33,2.33a2.5,2.5,0,1,0,3.54-3.54l-2.33-2.33a2.47,2.47,0,0,0-1-.61A26,26,0,0,1,28.87,5.1a2.47,2.47,0,0,0-.3,1.16V9.55a2.5,2.5,0,0,0,5,0V6.26a2.47,2.47,0,0,0-.3-1.16,26,26,0,0,1,14.6,6.05,2.47,2.47,0,0,0-1,.61l-2.33,2.33a2.5,2.5,0,1,0,3.54,3.54l2.33-2.33a2.47,2.47,0,0,0,.61-1A26,26,0,0,1,57,28.87a2.47,2.47,0,0,0-1.16-.3H52.59a2.5,2.5,0,0,0,0,5h3.29a2.47,2.47,0,0,0,1.16-.3A26,26,0,0,1,51,47.87Z"/>
    <path fill="#f05135"
          d="M44.52,25.67l-.06-.12,0,0a2.5,2.5,0,0,0-1-.95l-2.71-1.38a2.49,2.49,0,0,0-3.53,2.93l-3.62,1.35V23.81A2.49,2.49,0,0,0,35,19.58l-2.15-2.15a2.51,2.51,0,0,0-.38-.31l-.18-.1a2.47,2.47,0,0,0-.25-.13l-.24-.07-.23-.07a2.52,2.52,0,0,0-.46,0h0a2.51,2.51,0,0,0-.46,0l-.23.07-.24.07-.25.13-.19.1a2.51,2.51,0,0,0-.38.31h0l-2.15,2.15a2.49,2.49,0,0,0,1.42,4.23v7.26c0,.06,0,.12,0,.17a1.76,1.76,0,0,0,.1.54c0,.05,0,.11,0,.16l0,0,.07.15a2.49,2.49,0,0,0,.14.26l.09.13a2.46,2.46,0,0,0,.2.25l.08.09a2.51,2.51,0,0,0,.34.28l0,0a2.51,2.51,0,0,0,.34.18l.14.05.3.09.14,0a2.29,2.29,0,0,0,.92,0l.18-.05.22-.06,6.87-2.57A2.47,2.47,0,0,0,40.92,32a2.5,2.5,0,0,0,2.23-1.37l1.12-2.2A2.49,2.49,0,0,0,44.68,26,2.46,2.46,0,0,0,44.52,25.67Z"/>
</svg>