<svg xmlns="http://www.w3.org/2000/svg" viewBox="0 0 77.83 42.66" height="30px">
    <path fill="#f05135"
          d="M13.91,17.65V11.5a3.2,3.2,0,0,1,2.14,2.69,2.5,2.5,0,0,0,5,0c0-3.8-3-7-7.14-7.93V2.5a2.5,2.5,0,0,0-5,0V6.25c-4.11.94-7.14,4.14-7.14,7.93s3,7,7.14,7.93v9.19C6.64,30.59,5,28.93,5,27.06a2.5,2.5,0,0,0-5,0c0,4.59,3.82,8.44,8.91,9.4v3.7a2.5,2.5,0,0,0,5,0v-3.7c5.09-1,8.91-4.81,8.91-9.4S19,18.62,13.91,17.65ZM6.77,14.19A3.2,3.2,0,0,1,8.91,11.5v5.39A3.2,3.2,0,0,1,6.77,14.19Zm7.14,17.13V22.8c2.28.72,3.91,2.38,3.91,4.26S16.19,30.6,13.91,31.32Z"/>
    <path fill="#f05135"
          d="M41.41,17.65V11.5a3.2,3.2,0,0,1,2.14,2.69,2.5,2.5,0,0,0,5,0c0-3.8-3-7-7.14-7.93V2.5a2.5,2.5,0,0,0-5,0V6.25c-4.11.94-7.14,4.14-7.14,7.93s3,7,7.14,7.93v9.19c-2.28-.72-3.91-2.38-3.91-4.26a2.5,2.5,0,1,0-5,0c0,4.59,3.82,8.44,8.91,9.4v3.7a2.5,2.5,0,0,0,5,0v-3.7c5.09-1,8.91-4.81,8.91-9.4S46.51,18.62,41.41,17.65Zm-7.14-3.47a3.2,3.2,0,0,1,2.14-2.69v5.39A3.2,3.2,0,0,1,34.27,14.19Zm7.14,17.13V22.8c2.28.72,3.91,2.38,3.91,4.26S43.69,30.6,41.41,31.32Z"/>
    <path fill="#f05135"
          d="M68.91,17.65V11.5a3.2,3.2,0,0,1,2.14,2.69,2.5,2.5,0,0,0,5,0c0-3.8-3-7-7.14-7.93V2.5a2.5,2.5,0,1,0-5,0V6.25c-4.11.94-7.14,4.14-7.14,7.93s3,7,7.14,7.93v9.19C61.64,30.59,60,28.93,60,27.06a2.5,2.5,0,1,0-5,0c0,4.59,3.82,8.44,8.91,9.4v3.7a2.5,2.5,0,1,0,5,0v-3.7c5.09-1,8.91-4.81,8.91-9.4S74,18.62,68.91,17.65Zm-7.14-3.47a3.2,3.2,0,0,1,2.14-2.69v5.39A3.2,3.2,0,0,1,61.77,14.19Zm7.14,17.13V22.8c2.28.72,3.91,2.38,3.91,4.26S71.19,30.6,68.91,31.32Z"/>
</svg>