<svg xmlns="http://www.w3.org/2000/svg" viewBox="0 0 62.09 47.8" width="20px">
    <path fill="#f05135"
          d="M59.59,14.23H55V9.64a2.5,2.5,0,0,0-2.5-2.5H47.86V2.5A2.5,2.5,0,0,0,45.36,0H2.5A2.5,2.5,0,0,0,0,2.5V31.07a2.5,2.5,0,0,0,2.5,2.5H7.14v4.64a2.5,2.5,0,0,0,2.5,2.5h4.59V45.3a2.5,2.5,0,0,0,2.5,2.5H59.59a2.5,2.5,0,0,0,2.5-2.5V16.73A2.5,2.5,0,0,0,59.59,14.23ZM57.09,42.8H19.23V40.71H52.5a2.5,2.5,0,0,0,2.5-2.5v-19h2.09ZM5,5H42.86V28.57H5Zm7.14,28.57H45.36a2.5,2.5,0,0,0,2.5-2.5V12.14H50V35.71H12.14Z"/>
    <path fill="#f05135"
          d="M9.19,12.14H35.63a2.5,2.5,0,0,0,2.5-2.5h0a2.5,2.5,0,0,0-2.5-2.5H9.19a2.5,2.5,0,0,0,0,5Z"/>
    <path fill="#f05135"
          d="M9.19,19.29h16.2a2.51,2.51,0,0,0,2.5-2.5s0,0,0-.06a2.5,2.5,0,0,0-2.49-2.44H9.19a2.5,2.5,0,0,0,0,5Z"/>
    <path fill="#f05135" d="M9.19,26.43h16.2a2.5,2.5,0,0,0,0-5H9.19a2.5,2.5,0,0,0,0,5Z"/>
</svg>