<svg xmlns="http://www.w3.org/2000/svg" viewBox="0 0 49.91 63.44" height="30px">
    <path fill="#f05135"
          d="M38.35.08A44.12,44.12,0,0,0,2.16,57.43a8.68,8.68,0,0,0,9.4,5.93A44,44,0,0,0,43.09,43.16,44,44,0,0,0,47.74,6,8.67,8.67,0,0,0,38.35.08ZM6.92,55.89A39.12,39.12,0,0,1,39,5a3.68,3.68,0,0,1,4,2.51,39,39,0,0,1-4.12,32.95,39,39,0,0,1-28,17.92A3.68,3.68,0,0,1,6.92,55.89Z"/>
    <path fill="#f05135" d="M24.71,23.38l7.87,5a2.5,2.5,0,1,0,2.67-4.23l-7.87-5a2.5,2.5,0,1,0-2.67,4.23Z"/>
    <path fill="#f05135" d="M21.35,28.69l7.88,5a2.5,2.5,0,1,0,2.67-4.23l-7.88-5a2.5,2.5,0,1,0-2.67,4.23Z"/>
    <path fill="#f05135" d="M18,34l7.88,5a2.5,2.5,0,0,0,2.67-4.23l-7.87-5A2.5,2.5,0,0,0,18,34Z"/>
    <path fill="#f05135" d="M14.65,39.32l7.87,5a2.5,2.5,0,0,0,2.67-4.23l-7.87-5a2.5,2.5,0,1,0-2.67,4.23Z"/>
</svg>