<svg xmlns="http://www.w3.org/2000/svg" viewBox="0 0 76.46 40.62" width="20px">
    <path fill="#f05135"
          d="M18.73,28.71a6,6,0,1,0,6,6A6,6,0,0,0,18.73,28.71Zm0,6.91a1,1,0,1,1,1-1A1,1,0,0,1,18.73,35.62Z"/>
    <path fill="#f05135"
          d="M57.77,28.71a6,6,0,1,0,6,6A6,6,0,0,0,57.77,28.71Zm0,6.91a1,1,0,1,1,1-1A1,1,0,0,1,57.77,35.62Z"/>
    <path fill="#f05135"
          d="M74.26,17.89,59.38,16.11,53.52,4.32a2.5,2.5,0,0,0-2.24-1.39H40.73V0h-5V2.93H25.18a2.5,2.5,0,0,0-2.24,1.39L17.09,16.11,2.2,17.89A2.5,2.5,0,0,0,0,20.37V34.66a2.5,2.5,0,0,0,2.5,2.5H9.3a2.5,2.5,0,0,0,2.5-2.5,6.93,6.93,0,1,1,13.86,0,2.5,2.5,0,0,0,2.5,2.5H48.31a2.5,2.5,0,0,0,2.5-2.5,6.93,6.93,0,0,1,13.86,0,2.5,2.5,0,0,0,2.5,2.5H74a2.5,2.5,0,0,0,2.5-2.5V20.37A2.5,2.5,0,0,0,74.26,17.89Zm-2.8,14.27H69.4a11.93,11.93,0,0,0-23.33,0H30.39a11.93,11.93,0,0,0-23.33,0H5V22.59l14-1.67A2.5,2.5,0,0,0,21,19.55L26.73,7.93h23L55.5,19.55a2.5,2.5,0,0,0,1.94,1.37l14,1.67Z"/>
    <path fill="#f05135"
          d="M35,9.41h-6a2.5,2.5,0,0,0-2.26,1.42l-3.73,7.82a2.5,2.5,0,0,0,2.26,3.58H35a2.5,2.5,0,0,0,2.5-2.5V11.91A2.5,2.5,0,0,0,35,9.41Zm-2.5,7.82H29.3l1.34-2.82h1.91Z"/>
    <path fill="#f05135"
          d="M49.65,10.83a2.5,2.5,0,0,0-2.26-1.42h-6a2.5,2.5,0,0,0-2.5,2.5v7.82a2.5,2.5,0,0,0,2.5,2.5h9.71a2.5,2.5,0,0,0,2.26-3.58Zm-5.74,6.4V14.41h1.91l1.34,2.82Z"/>
</svg>