<svg xmlns="http://www.w3.org/2000/svg" viewBox="0 0 25.56 20.77"><defs><style>.cls-1{fill:#2e2e34;}</style></defs><title>twitter</title><g id="Layer_2" data-name="Layer 2"><g id="Layer_1-2" data-name="Layer 1"><path class="cls-1" d="M25.56,2.46a10.46,10.46,0,0,1-3,.83A5.25,5.25,0,0,0,24.85.39a10.48,10.48,0,0,1-3.33,1.27,5.25,5.25,0,0,0-8.93,4.78A14.88,14.88,0,0,1,1.78,1,5.25,5.25,0,0,0,3.4,8,5.23,5.23,0,0,1,1,7.31v.07a5.24,5.24,0,0,0,4.21,5.14,5.28,5.28,0,0,1-2.37.09,5.24,5.24,0,0,0,4.9,3.64,10.52,10.52,0,0,1-6.51,2.24A10.54,10.54,0,0,1,0,18.41a14.86,14.86,0,0,0,8,2.36A14.81,14.81,0,0,0,23,5.85c0-.23,0-.46,0-.68a10.63,10.63,0,0,0,2.62-2.71"/></g></g></svg>